<?xml version="1.0" encoding="utf-8"?>
<!-- Generator: Adobe Illustrator 21.0.0, SVG Export Plug-In . SVG Version: 6.00 Build 0)  -->
<svg version="1.1" id="Layer_1" xmlns="http://www.w3.org/2000/svg" xmlns:xlink="http://www.w3.org/1999/xlink" x="0px" y="0px"
	 viewBox="0 0 80 80" style="enable-background:new 0 0 80 80;" xml:space="preserve">
<style type="text/css">
	.st0{fill:url(#Rectangle_52-2_1_);}
	.st1{fill:#FFFFFF;}
</style>
<g transform="matrix(1, 0, 0, 1, 0, 0)">
	
		<linearGradient id="Rectangle_52-2_1_" gradientUnits="userSpaceOnUse" x1="-670.7523" y1="339.8676" x2="-671.6772" y2="339.3046" gradientTransform="matrix(80 0 0 -80 53737 27207)">
		<stop  offset="0" style="stop-color:#F89E30"/>
		<stop  offset="1" style="stop-color:#D4821E"/>
	</linearGradient>
	<path id="Rectangle_52-2" class="st0" d="M26,0h28c14.4,0,26,11.6,26,26v28c0,14.4-11.6,26-26,26H26C11.6,80,0,68.4,0,54V26
		C0,11.6,11.6,0,26,0z"/>
</g>
<g id="BCH_icon" transform="translate(114 204)">
	<path id="Path_8-2" class="st1" d="M-71.1-166.9L-71.1-166.9L-71.1-166.9L-71.1-166.9L-71.1-166.9L-71.1-166.9L-71.1-166.9
		L-71.1-166.9L-71.1-166.9l0.1-0.1v0l0,0v0l0,0v0l0,0v0l0,0v0l0,0v0l0,0v0l0,0v0l0,0v0l0,0v0l0,0v0l0,0v0l0,0v0l0,0v0l0,0v0l0,0v0
		l0,0v0l0,0v0l0,0v0l0,0l0,0l0,0c0.2-0.4,0.2-0.8,0.1-1.3v0c0,0,0,0,0,0l0,0l0,0c0,0,0,0,0-0.1c0,0,0,0,0-0.1l0,0l0,0c0,0,0,0,0,0v0
		c-0.1-0.4-0.4-0.8-0.7-1c0,0,0,0,0,0l0,0l0,0h0l0,0h0l0,0h0l0,0h0l0,0h0l0,0l0,0l0,0h0l0,0h0l0,0h0l0,0h0l0,0h0l0,0h0l0,0h0l0,0h0
		l0,0h0l0,0h0l0,0h0l0,0h0l0,0h0l0,0h0l0,0h0l0,0h0l0,0l0,0l0,0c-0.8-0.3-1.6-0.4-2.4-0.2c-0.6,0.1-2.2,0.6-2.7,0.7l1.3,4.9
		c0.4-0.1,2.1-0.5,2.7-0.7C-72.3-165.8-71.6-166.2-71.1-166.9z"/>
	<path id="Path_9-2" class="st1" d="M-67.6-161.5L-67.6-161.5C-67.6-161.5-67.6-161.5-67.6-161.5L-67.6-161.5L-67.6-161.5
		L-67.6-161.5c0-0.1,0-0.1,0-0.1s0,0,0-0.1l0,0l0,0c0,0,0,0,0,0l0,0c-0.1-0.5-0.4-0.9-0.8-1.1c0,0,0,0,0,0l0,0l0,0h0l0,0h0l0,0h0
		l0,0h0l0,0h0l0,0h0l0,0h0l0,0h0l0,0h0l0,0h0l0,0h0l0,0h0l0,0h0l0,0h0l0,0h0l0,0h0l0,0h0l0,0h0l0,0h0l0,0h0l0,0h0l0,0h0l0,0l0,0l0,0
		c-0.9-0.4-1.9-0.4-2.9-0.1c-0.7,0.2-2.7,0.7-3.1,0.8l1.4,5.3c0.5-0.1,2.5-0.6,3.1-0.8c1-0.2,1.8-0.8,2.4-1.5l0,0l0,0l0,0l0,0l0,0
		l0,0l0,0l0,0l0,0l0,0l0,0l0,0l0,0l0,0l0,0v0l0,0v0l0,0v0l0,0v0l0,0v0l0,0v0l0,0v0l0,0v0l0,0v0l0,0v0l0,0v0l0,0v0l0,0v0l0,0v0l0,0v0
		l0,0v0l0,0l0,0l0,0C-67.6-160.4-67.5-161-67.6-161.5L-67.6-161.5z"/>
	<path id="Path_10-2" class="st1" d="M-73.5-186c-12.4,0-22.5,10.1-22.5,22.5S-85.9-141-73.5-141S-51-151.1-51-163.5
		S-61.1-186-73.5-186z M-63.1-159.5L-63.1-159.5C-63.1-159.5-63.1-159.5-63.1-159.5l0,0.1l0,0l0,0l0,0l0,0l0,0l0,0l0,0l0,0l0,0l0,0
		l0,0l0,0l0,0l0,0l0,0l0,0l0,0l0,0l0,0l0,0l0,0l0,0l0,0l0,0l0,0l0,0l0,0l0,0l0,0l0,0l0,0l0,0l0,0l0,0l0,0l0,0l0,0l0,0l0,0l0,0l0,0
		l0,0l0,0l0,0l0,0l0,0l0,0l0,0c-1,1.4-2.4,2.4-4.1,2.8c-0.2,0.1-0.6,0.2-1,0.3l1,4l-2.4,0.6l-1-4l-1.9,0.5l1,4l-2.4,0.6l-1-4
		l-4.9,1.3l-0.1-3l1.7-0.4c0.4-0.1,0.7-0.6,0.6-1c0,0,0,0,0,0l-2.8-10.8l0,0c-0.2-0.7-0.8-1.1-1.5-0.9l-2,0.5l-0.7-2.6l4.9-1.3l-1-4
		l2.4-0.6l1,4l1.9-0.5l-1-4l2.4-0.6l1,4l0.4-0.1c1.5-0.4,3-0.2,4.4,0.4l0,0l0,0l0,0l0,0l0,0l0,0l0,0l0,0l0,0l0,0l0,0l0,0l0,0l0,0
		l0,0l0,0l0,0l0,0l0,0l0,0l0,0l0,0l0,0l0,0l0,0l0,0l0,0l0,0l0,0l0,0l0,0l0,0l0,0l0,0l0,0l0,0l0,0l0,0l0,0l0,0l0,0l0,0l0,0l0,0l0,0
		l0,0l0,0l0,0l0,0c0,0,0,0,0.1,0l0,0c0.6,0.5,1.1,1.2,1.3,2l0,0l0,0.1v0l0,0l0,0.1c0,0,0,0.1,0,0.1l0,0l0,0v0c0,0,0,0,0,0.1l0,0v0
		l0,0c0.2,0.8,0.1,1.6-0.2,2.4l0,0c0,0,0,0,0,0.1l0,0l0,0l0,0l0,0l0,0l0,0l0,0l0,0l0,0l0,0l0,0l0,0l0,0l0,0l0,0l0,0l0,0l0,0l0,0l0,0
		l0,0l0,0l0,0l0,0l0,0l0,0l0,0l0,0l0,0l0,0l0,0l0,0l0,0l0,0l0.1,0l0,0l0,0l0,0l0,0l0,0l0,0l0,0l0,0l0,0l0,0l0,0l0,0l0,0l0,0
		c-0.2,0.2-0.4,0.5-0.6,0.7c0.7,0.1,1.4,0.3,2.1,0.7l0,0l0,0l0,0l0,0l0,0l0,0l0,0l0,0l0,0l0,0l0,0l0,0l0,0l0,0l0,0l0,0l0,0l0,0l0,0
		l0,0l0,0l0,0l0,0l0,0l0,0l0,0l0,0l0,0l0,0l0,0l0,0l0,0l0,0l0,0l0,0l0,0l0,0l0,0l0,0l0,0l0,0l0,0l0,0l0,0l0,0l0,0l0,0l0,0l0,0
		c0,0,0,0,0.1,0.1l0,0c0.7,0.6,1.2,1.4,1.5,2.3v0l0,0c0,0,0,0.1,0,0.1v0l0,0c0,0,0,0.1,0,0.1c0,0,0,0.1,0,0.1l0,0l0,0v0
		c0,0,0,0,0,0.1l0,0C-62.7-161.4-62.7-160.4-63.1-159.5z"/>
</g>
</svg>
