<?xml version="1.0" encoding="utf-8"?>
<!-- Generator: Adobe Illustrator 21.0.0, SVG Export Plug-In . SVG Version: 6.00 Build 0)  -->
<svg version="1.1" id="Layer_1" xmlns="http://www.w3.org/2000/svg" xmlns:xlink="http://www.w3.org/1999/xlink" x="0px" y="0px"
	 viewBox="0 0 32 32" style="enable-background:new 0 0 32 32;" xml:space="preserve">
<style type="text/css">
	.st0{fill:#FFFFFF;}
</style>
<g id="Mail_x5F_1">
	<g>
		<path class="st0" d="M31.1,0.9C30.6,0.3,29.8,0,29,0H3C2.2,0,1.4,0.3,0.9,0.9C0.3,1.4,0,2.2,0,3v26c0,0.2,0,0.4,0.1,0.6
			c0,0,0,0.1,0,0.1c0,0.2,0.1,0.3,0.1,0.5c0,0,0,0,0,0c0.1,0.3,0.4,0.6,0.6,0.9c0.1,0.1,0.3,0.2,0.4,0.3c0,0,0,0,0,0
			c0.1,0.1,0.3,0.2,0.4,0.2c0,0,0,0,0.1,0c0.1,0.1,0.3,0.1,0.4,0.1c0,0,0.1,0,0.1,0C2.6,32,2.8,32,3,32h26c0.2,0,0.4,0,0.6-0.1
			c0,0,0.1,0,0.1,0c0.2,0,0.3-0.1,0.4-0.1c0,0,0,0,0.1,0c0.2-0.1,0.3-0.1,0.4-0.2c0,0,0,0,0,0c0.1-0.1,0.3-0.2,0.4-0.3
			c0.3-0.3,0.5-0.6,0.6-0.9c0,0,0,0,0,0c0.1-0.1,0.1-0.3,0.1-0.5c0,0,0-0.1,0-0.1c0-0.2,0.1-0.4,0.1-0.6V3C32,2.2,31.7,1.4,31.1,0.9
			z M2,6.2l9.8,9.8L2,25.8V6.2z M29.9,29.4c0,0.1-0.1,0.2-0.2,0.3c-0.1,0.1-0.2,0.2-0.3,0.2C29.3,30,29.1,30,29,30H3
			c-0.1,0-0.3,0-0.4-0.1c-0.1,0-0.2-0.1-0.3-0.2c-0.1-0.1-0.2-0.2-0.2-0.3C2,29.3,2,29.1,2,29c0-0.3,0.1-0.5,0.3-0.7l10.9-10.9
			l0.7,0.7c0.6,0.6,1.3,0.9,2.1,0.9s1.6-0.3,2.1-0.9l0.7-0.7l10.9,10.9c0.2,0.2,0.3,0.4,0.3,0.7C30,29.1,30,29.3,29.9,29.4z
			 M30,25.8L20.2,16L30,6.2V25.8z M29.7,3.7l-13,13c-0.4,0.4-1,0.4-1.4,0l-13-13C2.1,3.5,2,3.3,2,3c0-0.3,0.1-0.5,0.3-0.7
			C2.5,2.1,2.7,2,3,2h26c0.3,0,0.5,0.1,0.7,0.3C29.9,2.5,30,2.7,30,3C30,3.3,29.9,3.5,29.7,3.7z"/>
	</g>
</g>
</svg>
