<?xml version="1.0" encoding="utf-8"?>
<!-- Generator: Adobe Illustrator 21.0.0, SVG Export Plug-In . SVG Version: 6.00 Build 0)  -->
<svg version="1.1" id="Layer_1" xmlns="http://www.w3.org/2000/svg" xmlns:xlink="http://www.w3.org/1999/xlink" x="0px" y="0px"
	 viewBox="0 0 32 32" style="enable-background:new 0 0 32 32;" xml:space="preserve">
<style type="text/css">
	.st0{fill:#FFFFFF;}
</style>
<g id="Home">
	<g>
		<path class="st0" d="M31.1,13.9l-13-13c-1.1-1.1-3.1-1.1-4.2,0l-13,13c-1.2,1.2-1.2,3.1,0,4.2C1.4,18.7,2.2,19,3,19
			c0.3,0,0.7-0.1,1-0.2V30c0,1.1,0.9,2,2,2h4c1.1,0,2-0.9,2-2v-7h8v7c0,1.1,0.9,2,2,2h4c1.1,0,2-0.9,2-2V18.8c0.3,0.1,0.7,0.2,1,0.2
			c0.8,0,1.6-0.3,2.1-0.9C32.3,16.9,32.3,15,31.1,13.9z M15.3,2.3C15.5,2.1,15.7,2,16,2c0.3,0,0.5,0.1,0.7,0.3c0.4,0.4,0.4,1,0,1.4
			L16,4.4l-0.7-0.7C14.9,3.3,14.9,2.7,15.3,2.3z M3.7,16.7c-0.4,0.4-1,0.4-1.4,0c-0.4-0.4-0.4-1,0-1.4l11-11
			c0.1,0.3,0.3,0.6,0.6,0.8l0.7,0.7L3.7,16.7z M26,30h-4v-7c0-1.1-0.9-2-2-2h-8c-1.1,0-2,0.9-2,2v7H6V17.2l10-10l10,10V30z
			 M29.7,16.7c-0.4,0.4-1,0.4-1.4,0L17.4,5.8l0.7-0.7c0.2-0.2,0.4-0.5,0.6-0.8l11,11C30.1,15.7,30.1,16.3,29.7,16.7z M12,15
			c0,2.2,1.8,4,4,4c2.2,0,4-1.8,4-4c0-2.2-1.8-4-4-4C13.8,11,12,12.8,12,15z M18,15c0,1.1-0.9,2-2,2c-1.1,0-2-0.9-2-2
			c0-1.1,0.9-2,2-2C17.1,13,18,13.9,18,15z"/>
	</g>
</g>
</svg>
