<?xml version="1.0" encoding="utf-8"?>
<!-- Generator: Adobe Illustrator 21.0.0, SVG Export Plug-In . SVG Version: 6.00 Build 0)  -->
<svg version="1.1" id="Layer_1" xmlns="http://www.w3.org/2000/svg" xmlns:xlink="http://www.w3.org/1999/xlink" x="0px" y="0px"
	 viewBox="0 0 80 80" style="enable-background:new 0 0 80 80;" xml:space="preserve">
<style type="text/css">
	.st0{fill:url(#Rectangle_51-2_1_);}
	.st1{fill:#FFFFFF;}
</style>
<g transform="matrix(1, 0, 0, 1, 0, 0)">
	
		<linearGradient id="Rectangle_51-2_1_" gradientUnits="userSpaceOnUse" x1="-670.7271" y1="339.7613" x2="-671.7271" y2="339.4033" gradientTransform="matrix(80 0 0 -80 53737 27207)">
		<stop  offset="0" style="stop-color:#ABABAB"/>
		<stop  offset="1" style="stop-color:#A8A8A8"/>
	</linearGradient>
	<path id="Rectangle_51-2" class="st0" d="M26,0h28c14.4,0,26,11.6,26,26v28c0,14.4-11.6,26-26,26H26C11.6,80,0,68.4,0,54V26
		C0,11.6,11.6,0,26,0z"/>
</g>
<path id="LTC_icon" class="st1" d="M22.7,63h36.4l2.5-9.1H38.2L41,42.9l7.7-2.3l1.8-6.5l-8,2.5l5-18.6H34.3l-5.9,23.2l-7.8,2.5
	L19,50.1l8-2.5L22.7,63z"/>
</svg>
