<?xml version="1.0" encoding="utf-8"?>
<!-- Generator: Adobe Illustrator 21.0.0, SVG Export Plug-In . SVG Version: 6.00 Build 0)  -->
<svg version="1.1" id="Layer_1" xmlns="http://www.w3.org/2000/svg" xmlns:xlink="http://www.w3.org/1999/xlink" x="0px" y="0px"
	 viewBox="0 0 331.5 112" style="enable-background:new 0 0 331.5 112;" xml:space="preserve">
<style type="text/css">
	.st0{fill:#FFFFFF;}
	.st1{fill:#D44899;}
</style>
<g>
	<g>
		<path class="st0" d="M195.8,38l-15.6,36.5H170L154.4,38h11.2l9.9,23.8L185.6,38H195.8z"/>
		<path class="st0" d="M195.6,56.3c0-10.9,8.6-19,20.3-19c11.7,0,20.3,8,20.3,19c0,10.9-8.6,19-20.3,19
			C204.2,75.2,195.6,67.2,195.6,56.3z M225.7,56.3c0-6.3-4.3-10.4-9.9-10.4c-5.5,0-9.9,4.1-9.9,10.4c0,6.3,4.3,10.4,9.9,10.4
			C221.4,66.7,225.7,62.6,225.7,56.3z"/>
		<path class="st0" d="M248.8,46.2h-11.2V38h32.7v8.2h-11.2v28.3h-10.3V46.2z"/>
		<path class="st0" d="M303.4,66.5v8h-29.3V38h28.6v8h-18.4v6.2h16.2v7.7h-16.2v6.7H303.4z"/>
		<path class="st0" d="M132.7,61.4V51.1H151v10.3H132.7z"/>
	</g>
	<path class="st1" d="M69.9,45.8c-2.4-5.2-6.6-9.3-11.8-11.8c0,0,0,0,0,0c0-5.8-4.7-10.5-10.5-10.5c-5.8,0-10.5,4.7-10.5,10.5
		c0,0,0,0,0,0c-5.2,2.4-9.3,6.6-11.8,11.8c-5.8,0-10.5,4.7-10.5,10.5c0,5.8,4.7,10.5,10.5,10.5c2.4,5.2,6.6,9.3,11.8,11.8
		c0,0,0,0,0,0c0,5.8,4.7,10.5,10.5,10.5c5.8,0,10.5-4.7,10.5-10.5c5.2-2.4,9.3-6.6,11.8-11.8c0,0,0,0,0,0c5.8,0,10.5-4.7,10.5-10.5
		C80.4,50.5,75.7,45.8,69.9,45.8z M47.7,28.3c3.2,0,5.7,2.6,5.7,5.7s-2.6,5.7-5.7,5.7c-3.2,0-5.7-2.6-5.7-5.7S44.5,28.3,47.7,28.3z
		 M19.7,56.3c0-3.2,2.6-5.7,5.7-5.7s5.7,2.6,5.7,5.7S28.6,62,25.5,62S19.7,59.4,19.7,56.3z M47.7,84.2c-3.2,0-5.7-2.6-5.7-5.7
		c0-3.2,2.6-5.7,5.7-5.7c3.2,0,5.7,2.6,5.7,5.7C53.4,81.6,50.8,84.2,47.7,84.2z M57,73.8c-1.7-3.4-5.3-5.7-9.3-5.7
		c-4.1,0-7.6,2.3-9.3,5.7c-3.5-1.9-6.3-4.7-8.2-8.2c3.4-1.7,5.7-5.3,5.7-9.3c0-4.1-2.3-7.6-5.7-9.3c1.9-3.5,4.7-6.3,8.2-8.2
		c1.7,3.4,5.3,5.7,9.3,5.7c4.1,0,7.6-2.3,9.3-5.7c3.5,1.9,6.3,4.7,8.2,8.2c-3.4,1.7-5.7,5.3-5.7,9.3c0,4.1,2.3,7.6,5.7,9.3
		C63.3,69,60.5,71.9,57,73.8z M69.9,62c-3.2,0-5.7-2.6-5.7-5.7s2.6-5.7,5.7-5.7s5.7,2.6,5.7,5.7S73.1,62,69.9,62z"/>
	<path class="st0" d="M129.3,38l-15.6,36.5h-10.2L87.9,38h11.2l9.9,23.8L119.1,38H129.3z"/>
</g>
</svg>
