<?xml version="1.0" encoding="utf-8"?>
<!-- Generator: Adobe Illustrator 21.0.0, SVG Export Plug-In . SVG Version: 6.00 Build 0)  -->
<svg version="1.1" id="Layer_1" xmlns="http://www.w3.org/2000/svg" xmlns:xlink="http://www.w3.org/1999/xlink" x="0px" y="0px"
	 viewBox="0 0 31.9 31.9" style="enable-background:new 0 0 31.9 31.9;" xml:space="preserve">
<style type="text/css">
	.st0{fill:#CB45EB;}
</style>
<g id="Group_10" transform="translate(78 23.9)">
	<path id="Path_28" class="st0" d="M-51-13.1c-1.2-2.5-3.2-4.6-5.8-5.7l0,0c0-2.8-2.3-5.1-5.1-5.1s-5.1,2.3-5.1,5.1l0,0
		c-2.5,1.2-4.6,3.2-5.7,5.7c-2.8-0.1-5.2,2.2-5.3,5s2.2,5.2,5,5.3c0.1,0,0.1,0,0.2,0c1.2,2.5,3.2,4.6,5.7,5.7l0,0
		c0,2.8,2.3,5.1,5.1,5.1s5.1-2.3,5.1-5.1c2.5-1.2,4.6-3.2,5.7-5.7l0,0c2.8,0,5.1-2.3,5.1-5.1C-46-10.6-48.2-12.9-51-13.1
		C-50.8-13.1-50.9-13.1-51-13.1z M-61.9-21.7c1.5,0,2.8,1.3,2.8,2.8s-1.3,2.8-2.8,2.8s-2.8-1.3-2.8-2.8
		C-64.7-20.5-63.4-21.7-61.9-21.7L-61.9-21.7z M-75.6-8c0-1.5,1.3-2.8,2.8-2.8S-70-9.5-70-8s-1.3,2.8-2.8,2.8l0,0
		C-74.3-5.2-75.6-6.4-75.6-8L-75.6-8z M-61.9,5.7c-1.5,0-2.8-1.3-2.8-2.8s1.3-2.8,2.8-2.8s2.8,1.3,2.8,2.8l0,0
		C-59.1,4.4-60.3,5.7-61.9,5.7C-61.8,5.7-61.9,5.7-61.9,5.7z M-57.3,0.5C-58.6-2-61.7-3-64.2-1.7c-1,0.5-1.7,1.3-2.2,2.2
		c-1.7-0.9-3.1-2.3-4-4c2.5-1.3,3.5-4.4,2.2-6.9c-0.5-1-1.3-1.7-2.2-2.2c0.9-1.7,2.3-3.1,4-4c1.3,2.5,4.4,3.5,6.9,2.2
		c1-0.5,1.7-1.3,2.2-2.2c1.7,0.9,3.1,2.3,4,4c-2.5,1.3-3.5,4.4-2.2,6.9c0.5,1,1.3,1.7,2.2,2.2C-54.1-1.8-55.6-0.4-57.3,0.5
		L-57.3,0.5z M-51-5.2c-1.5,0-2.8-1.3-2.8-2.8s1.3-2.8,2.8-2.8s2.8,1.3,2.8,2.8l0,0C-48.2-6.5-49.4-5.2-51-5.2L-51-5.2z"/>
</g>
</svg>
