<?xml version="1.0" encoding="utf-8"?>
<!-- Generator: Adobe Illustrator 21.0.0, SVG Export Plug-In . SVG Version: 6.00 Build 0)  -->
<svg version="1.1" id="Layer_1" xmlns="http://www.w3.org/2000/svg" xmlns:xlink="http://www.w3.org/1999/xlink" x="0px" y="0px"
	 viewBox="0 0 32 32" style="enable-background:new 0 0 32 32;" xml:space="preserve">
<style type="text/css">
	.st0{fill:#FFFFFF;}
</style>
<g id="Wallet">
	<g>
		<path class="st0" d="M31,19h-1V5c0-2.8-2.2-5-5-5H5C2.2,0,0,2.2,0,5v22c0,2.8,2.2,5,5,5h20c2.8,0,5-2.2,5-5v-2h1c0.6,0,1-0.4,1-1
			v-4C32,19.4,31.6,19,31,19z M2,5c0-1.7,1.3-3,3-3h20c1.7,0,3,1.3,3,3v8c-0.6-0.4-1.3-0.8-2-0.9c0,0,0-0.1,0-0.1V5c0-0.6-0.4-1-1-1
			H6C4.4,4,2.9,4.8,2,6V5z M6,8c-1.3,0-2.4,0.8-2.8,2C3.1,9.7,3,9.4,3,9c0-1.7,1.3-3,3-3h18v2H6z M24,10v2H6c-0.6,0-1-0.4-1-1
			c0-0.6,0.4-1,1-1H24z M28,27c0,1.7-1.3,3-3,3H5c-1.7,0-3-1.3-3-3V13c0.8,0.6,1.9,1,3,1h20c1.7,0,3,1.3,3,3v2h-5c-1.7,0-3,1.3-3,3
			s1.3,3,3,3h5V27z M30,23h-7c-0.6,0-1-0.4-1-1c0-0.6,0.4-1,1-1h7V23z"/>
	</g>
</g>
</svg>
