<?xml version="1.0" encoding="utf-8"?>
<!-- Generator: Adobe Illustrator 21.0.0, SVG Export Plug-In . SVG Version: 6.00 Build 0)  -->
<svg version="1.1" id="Layer_1" xmlns="http://www.w3.org/2000/svg" xmlns:xlink="http://www.w3.org/1999/xlink" x="0px" y="0px"
	 viewBox="0 0 80 80" style="enable-background:new 0 0 80 80;" xml:space="preserve">
<style type="text/css">
	.st0{fill:url(#Rectangle_53-2_1_);}
	.st1{fill:#FF6600;}
	.st2{fill:#4B4B4B;}
</style>
<g id="XMR_icon" transform="translate(113.001 204)">
	<g transform="matrix(1, 0, 0, 1, -113, -204)">
		
			<linearGradient id="Rectangle_53-2_1_" gradientUnits="userSpaceOnUse" x1="-670.725" y1="339.824" x2="-671.708" y2="339.349" gradientTransform="matrix(80 0 0 -80 53737.1602 27207)">
			<stop  offset="0" style="stop-color:#FFFFFF"/>
			<stop  offset="1" style="stop-color:#ECECEC"/>
		</linearGradient>
		<path id="Rectangle_53-2" class="st0" d="M26,0h28c14.4,0,26,11.6,26,26v28c0,14.4-11.6,26-26,26H26C11.6,80,0,68.4,0,54V26
			C0,11.6,11.6,0,26,0z"/>
	</g>
	<path id="Path_11-2" class="st1" d="M-73.5-186c12.4,0,22.5,10.1,22.5,22.5c0,2.4-0.4,4.8-1.1,7.1h-6.7v-18.9l-14.6,14.6
		l-14.6-14.6v18.9h-6.7c-3.9-11.8,2.5-24.5,14.3-28.5C-78.3-185.6-75.9-186-73.5-186"/>
	<path id="Path_12-2" class="st2" d="M-70.1-157.3l6.4-6.4v11.9h9.5c-6.5,10.6-20.3,14-30.9,7.5c-3.1-1.9-5.7-4.5-7.5-7.5h9.5v-11.9
		l6.4,6.4l3.4,3.4L-70.1-157.3z"/>
</g>
</svg>
