<?xml version="1.0" encoding="utf-8"?>
<!-- Generator: Adobe Illustrator 21.0.0, SVG Export Plug-In . SVG Version: 6.00 Build 0)  -->
<svg version="1.1" id="Layer_1" xmlns="http://www.w3.org/2000/svg" xmlns:xlink="http://www.w3.org/1999/xlink" x="0px" y="0px"
	 viewBox="0 0 34 34" style="enable-background:new 0 0 34 34;" xml:space="preserve">
<style type="text/css">
	.st0{fill:#FFFFFF;}
</style>
<g id="Group_7" transform="translate(279 553)">
	<path id="Path_15" class="st0" d="M-260.9-540.6h-7.4v-3.9h4.4v-3.3h3.9v3.3h4.9v3c0,0.6-0.2,1.1-0.6,1.6c-0.5,0.6-7.4,8.5-7.4,8.5
		h7.9v3.9h-4.9v3.3h-3.9v-3.3h-4.8v-3c-0.1-0.6,0.2-1.3,0.6-1.7C-267.7-532.7-260.9-540.6-260.9-540.6z"/>
	<g id="Group_6" transform="translate(0 0)">
		<path id="Path_16" class="st0" d="M-262-519c-9.4,0-17-7.6-17-17s7.6-17,17-17c9.4,0,17,7.6,17,17C-245-526.6-252.6-519-262-519z
			 M-262-551.2c-8.4,0-15.2,6.8-15.2,15.2s6.8,15.2,15.2,15.2s15.2-6.8,15.2-15.2l0,0C-246.8-544.4-253.6-551.2-262-551.2z"/>
	</g>
</g>
</svg>
