<?xml version="1.0" encoding="utf-8"?>
<!-- Generator: Adobe Illustrator 21.0.0, SVG Export Plug-In . SVG Version: 6.00 Build 0)  -->
<svg version="1.1" id="Layer_1" xmlns="http://www.w3.org/2000/svg" xmlns:xlink="http://www.w3.org/1999/xlink" x="0px" y="0px"
	 viewBox="0 0 24 32" style="enable-background:new 0 0 24 32;" xml:space="preserve">
<style type="text/css">
	.st0{fill:#FCFCFC;}
</style>
<g id="Paper">
	<g>
		<path class="st0" d="M21.3,6h-2.5C18.3,6,18,5.6,18,5.1V2.9C18,1.3,16.8,0,15.3,0H2.8C1.2,0,0,1.3,0,2.9v26.3
			C0,30.7,1.2,32,2.8,32h18.5c1.5,0,2.8-1.3,2.8-2.9V8.9C24,7.3,22.8,6,21.3,6z M22,29.1c0,0.5-0.3,0.9-0.8,0.9H2.8
			C2.3,30,2,29.6,2,29.1V2.9C2,2.4,2.3,2,2.8,2h12.5C15.7,2,16,2.4,16,2.9v2.3C16,6.7,17.2,8,18.8,8h2.5C21.7,8,22,8.4,22,8.9V29.1z
			 M5,10h8c0.6,0,1-0.4,1-1c0-0.6-0.4-1-1-1H5C4.4,8,4,8.4,4,9C4,9.6,4.4,10,5,10z M19,12H5c-0.6,0-1,0.4-1,1c0,0.6,0.4,1,1,1h14
			c0.6,0,1-0.4,1-1C20,12.4,19.6,12,19,12z M19,16H5c-0.6,0-1,0.4-1,1c0,0.6,0.4,1,1,1h14c0.6,0,1-0.4,1-1C20,16.4,19.6,16,19,16z
			 M19,20H5c-0.6,0-1,0.4-1,1c0,0.6,0.4,1,1,1h14c0.6,0,1-0.4,1-1C20,20.4,19.6,20,19,20z M19,24H5c-0.6,0-1,0.4-1,1
			c0,0.6,0.4,1,1,1h14c0.6,0,1-0.4,1-1C20,24.4,19.6,24,19,24z"/>
	</g>
</g>
</svg>
