<?xml version="1.0" encoding="utf-8"?>
<!-- Generator: Adobe Illustrator 21.0.0, SVG Export Plug-In . SVG Version: 6.00 Build 0)  -->
<svg version="1.1" id="Layer_1" xmlns="http://www.w3.org/2000/svg" xmlns:xlink="http://www.w3.org/1999/xlink" x="0px" y="0px"
	 viewBox="0 0 16 16" style="enable-background:new 0 0 16 16;" xml:space="preserve">
<style type="text/css">
	.st0{fill:#FFFFFF;}
</style>
<g id="Group_28" transform="translate(1251 149)">
	<path id="Path_52" class="st0" d="M-1245.4-134.6h-3.2c-0.4,0-0.8-0.3-0.8-0.7c0,0,0-0.1,0-0.1v-11.2c0-0.4,0.3-0.8,0.7-0.8
		c0,0,0.1,0,0.1,0h3.2c0.4,0,0.8-0.3,0.8-0.7c0,0,0-0.1,0-0.1c0-0.4-0.3-0.8-0.7-0.8c0,0-0.1,0-0.1,0h-3.2c-1.3,0-2.4,1-2.4,2.3
		c0,0,0,0.1,0,0.1v11.2c0,1.3,1,2.4,2.3,2.4c0,0,0.1,0,0.1,0h3.2c0.4,0,0.8-0.4,0.8-0.8C-1244.6-134.2-1245-134.6-1245.4-134.6z"/>
	<path id="Path_53" class="st0" d="M-1235.1-140.7c0.1-0.2,0.1-0.4,0-0.6c-0.1-0.1-0.1-0.2-0.2-0.2l-4-4c-0.3-0.3-0.8-0.3-1.1,0
		c-0.3,0.3-0.3,0.8,0,1.1l2.6,2.6h-7.7c-0.4,0-0.8,0.3-0.8,0.7c0,0,0,0.1,0,0.1c0,0.4,0.3,0.8,0.7,0.8c0,0,0.1,0,0.1,0h7.7l-2.6,2.6
		c-0.3,0.3-0.3,0.8,0,1.1c0,0,0,0,0,0c0.3,0.3,0.8,0.3,1.1,0c0,0,0,0,0,0l4-4C-1235.2-140.5-1235.1-140.6-1235.1-140.7z"/>
</g>
</svg>
