<?xml version="1.0" encoding="utf-8"?>
<!-- Generator: Adobe Illustrator 21.0.0, SVG Export Plug-In . SVG Version: 6.00 Build 0)  -->
<svg version="1.1" id="Layer_1" xmlns="http://www.w3.org/2000/svg" xmlns:xlink="http://www.w3.org/1999/xlink" x="0px" y="0px"
	 viewBox="0 0 15.8 15.9" style="enable-background:new 0 0 15.8 15.9;" xml:space="preserve">
<style type="text/css">
	.st0{fill:#fff;}
</style>
<path id="Search_icon" class="st0" d="M15.6,13.5l-2.8-2.8C13.6,9.6,14,8.3,14,7c0-3.8-3.1-7-6.9-7C7.1,0,7,0,7,0C3.2,0,0,3.1,0,6.9
	C0,6.9,0,7,0,7c0,3.8,3.1,7,6.9,7c0,0,0.1,0,0.1,0c1.3,0,2.7-0.4,3.8-1.1l2.8,2.8c0.2,0.2,0.5,0.2,0.7,0c0,0,0,0,0,0l1.4-1.4
	C15.8,14,15.8,13.7,15.6,13.5z M7,12c-2.7,0-5-2.2-5-4.9C2,7.1,2,7,2,7c0-2.7,2.2-5,4.9-5C6.9,2,7,2,7,2c2.7,0,5,2.2,5,4.9
	c0,0,0,0.1,0,0.1C12,9.7,9.8,12,7,12C7.1,12,7,12,7,12z"/>
</svg>
