<?xml version="1.0" encoding="utf-8"?>
<!-- Generator: Adobe Illustrator 21.0.0, SVG Export Plug-In . SVG Version: 6.00 Build 0)  -->
<svg version="1.1" id="Layer_1" xmlns="http://www.w3.org/2000/svg" xmlns:xlink="http://www.w3.org/1999/xlink" x="0px" y="0px"
	 viewBox="0 0 18 18" style="enable-background:new 0 0 18 18;" xml:space="preserve">
<style type="text/css">
	.st0{fill:#FFFFFF;}
</style>
<g id="Watch_2_" transform="translate(96 122)">
	<g id="Group_11">
		<path id="Path_31" class="st0" d="M-87-122c-5,0-9,4-9,9s4,9,9,9s9-4,9-9C-78-118-82-122-87-122z M-87-105.1
			c-4.3,0-7.9-3.5-7.9-7.9s3.5-7.9,7.9-7.9s7.9,3.5,7.9,7.9C-79.1-108.7-82.7-105.1-87-105.1z M-85.5-112.2c0.2-0.2,0.2-0.5,0.2-0.8
			c0-0.7-0.4-1.4-1.1-1.6v-4.6c0-0.3-0.3-0.6-0.6-0.5c-0.3,0-0.5,0.2-0.5,0.5v4.6c-0.7,0.2-1.1,0.9-1.1,1.6c0,0.9,0.7,1.7,1.6,1.7
			c0,0,0,0,0.1,0c0.2,0,0.4,0,0.6-0.1l2.4,2.4c0.1,0.1,0.2,0.2,0.4,0.2c0.1,0,0.3-0.1,0.4-0.2c0.2-0.2,0.2-0.6,0-0.8c0,0,0,0,0,0
			L-85.5-112.2z M-87-112.4c-0.3,0-0.6-0.3-0.6-0.6s0.3-0.6,0.6-0.6s0.6,0.3,0.6,0.6c0,0,0,0,0,0C-86.4-112.7-86.6-112.5-87-112.4
			C-87-112.4-87-112.4-87-112.4z"/>
	</g>
</g>
</svg>
