<?xml version="1.0" encoding="utf-8"?>
<!-- Generator: Adobe Illustrator 21.0.0, SVG Export Plug-In . SVG Version: 6.00 Build 0)  -->
<svg version="1.1" id="Layer_1" xmlns="http://www.w3.org/2000/svg" xmlns:xlink="http://www.w3.org/1999/xlink" x="0px" y="0px"
	 viewBox="0 0 80 80" style="enable-background:new 0 0 80 80;" xml:space="preserve">
<style type="text/css">
	.st0{fill:url(#Rectangle_50-2_1_);}
	.st1{fill:#FFFFFF;}
</style>
<g transform="matrix(1, 0, 0, 1, 0, 0)">
	
		<linearGradient id="Rectangle_50-2_1_" gradientUnits="userSpaceOnUse" x1="-670.7523" y1="339.8676" x2="-671.6772" y2="339.3046" gradientTransform="matrix(80 0 0 -80 53737 27207)">
		<stop  offset="0" style="stop-color:#000000"/>
		<stop  offset="1" style="stop-color:#000000"/>
	</linearGradient>
	<path id="Rectangle_50-2" class="st0" d="M26,0h28c14.4,0,26,11.6,26,26v28c0,14.4-11.6,26-26,26H26C11.6,80,0,68.4,0,54V26
		C0,11.6,11.6,0,26,0z"/>
</g>
<path id="TRX_icon" class="st1" d="M59.2,28.8c-1.8-1.3-3.8-2.6-5.7-4c0,0-0.1-0.1-0.1-0.1c-0.2-0.2-0.5-0.3-0.7-0.4l0,0
	c-5.1-1.2-10.3-2.5-15.3-3.7c-4.6-1.1-9.1-2.2-13.7-3.3c-0.1,0-0.2-0.1-0.4-0.1C22.9,17,22.4,17,21.9,17c-0.1,0-0.3,0.1-0.4,0.1
	l-0.1,0.1c-0.2,0.2-0.3,0.4-0.4,0.6l0,0.1v0.5l0,0.1c2.9,8.1,5.8,16.2,8.7,24.2c2.2,6.1,4.5,12.4,6.7,18.6c0.2,0.4,0.6,0.7,1,0.7
	h0.1c0.4,0,0.8-0.2,1.1-0.6l8.3-12.2c2-3,4.1-5.9,6.1-8.9c0.8-1.2,1.7-2.4,2.5-3.6c1.4-2,2.8-4.1,4.2-6.1l0.1-0.1v-0.1
	C59.9,29.8,59.7,29.2,59.2,28.8 M49.4,33.3c-2,1-4,2.1-6,3.1c1.2-1.3,2.4-2.5,3.5-3.8c1.5-1.6,3-3.2,4.5-4.8l0,0
	c0.1-0.2,0.3-0.3,0.5-0.5c0.1-0.1,0.2-0.2,0.4-0.4c0.8,0.5,1.6,1.1,2.3,1.6c0.5,0.4,1.1,0.8,1.7,1.2C54,30.9,51.7,32.1,49.4,33.3
	 M44.4,32.8c-1.5,1.6-3.1,3.3-4.6,5c-3-3.6-6.1-7.3-9-10.9c-1.3-1.6-2.7-3.3-4.1-4.9l0,0c-0.3-0.3-0.6-0.7-0.9-1.1
	c-0.2-0.2-0.4-0.5-0.6-0.7c1.2,0.3,2.5,0.6,3.7,0.9c1.1,0.3,2.2,0.5,3.3,0.8l18.4,4.5C48.4,28.4,46.4,30.7,44.4,32.8 M39.1,53.3
	c0.1-1.1,0.2-2.2,0.3-3.4c0.1-0.9,0.2-1.8,0.3-2.7c0.1-1.4,0.3-2.9,0.4-4.3l0-0.3c0.1-0.9,0.2-1.8,0.3-2.8c0.1-0.1,0.3-0.1,0.4-0.2
	c0.2-0.1,0.3-0.1,0.5-0.2c2.4-1.3,4.9-2.5,7.3-3.8c2.4-1.3,4.9-2.6,7.4-3.9c-2.3,3.3-4.5,6.6-6.7,9.8c-1.9,2.8-3.8,5.6-5.8,8.4
	c-0.8,1.1-1.5,2.3-2.3,3.4c-0.8,1.2-1.7,2.5-2.6,3.7C38.8,55.9,38.9,54.6,39.1,53.3 M24.4,22.6c-0.1-0.4-0.3-0.8-0.4-1.1
	c2.8,3.4,5.7,6.9,8.5,10.3c1.4,1.7,2.9,3.5,4.3,5.2c0.3,0.3,0.6,0.7,0.8,1c0.4,0.4,0.7,0.9,1.1,1.3c-0.1,1.1-0.2,2.2-0.3,3.2
	c-0.1,0.7-0.1,1.5-0.2,2.2v0c0,0.5-0.1,0.9-0.1,1.4c-0.1,0.6-0.2,2.1-0.2,2.1l0,0.1c-0.2,2.1-0.4,4.3-0.6,6.4
	c-0.1,0.9-0.2,1.8-0.3,2.6c-0.1-0.2-0.1-0.3-0.2-0.5c-0.2-0.4-0.3-0.9-0.5-1.3l-1.1-3.1C31.5,42.5,28,32.6,24.4,22.6"/>
</svg>
