<?xml version="1.0" encoding="utf-8"?>
<!-- Generator: Adobe Illustrator 21.0.0, SVG Export Plug-In . SVG Version: 6.00 Build 0)  -->
<svg version="1.1" id="Layer_1" xmlns="http://www.w3.org/2000/svg" xmlns:xlink="http://www.w3.org/1999/xlink" x="0px" y="0px"
	 viewBox="0 0 25.8 29.9" style="enable-background:new 0 0 25.8 29.9;" xml:space="preserve">
<style type="text/css">
	.st0{fill:#FFFFFF;}
</style>
<path id="Path_7" class="st0" d="M25.4,7.9c-1.2-0.8-2.5-1.8-3.8-2.6c0,0-0.1,0-0.1-0.1C21.4,5,21.2,4.9,21,4.9l0,0
	c-3.4-0.8-6.8-1.7-10.2-2.5L1.8,0.2c-0.1,0-0.2,0-0.2-0.1C1.2,0,0.9,0,0.6,0c-0.1,0-0.2,0-0.3,0.1L0.3,0.2C0.2,0.3,0.1,0.4,0,0.6
	l0,0.1v0.3L0,1C1.9,6.3,3.9,11.8,5.8,17c1.5,4.1,3,8.3,4.5,12.4c0.1,0.3,0.4,0.5,0.7,0.5H11c0.3,0,0.6-0.1,0.7-0.4l5.6-8.1
	c1.4-2,2.7-3.9,4.1-5.9c0.6-0.8,1.1-1.6,1.7-2.4c0.9-1.3,1.9-2.7,2.8-4l0-0.1V8.9C25.9,8.5,25.7,8.1,25.4,7.9 M18.9,10.8
	c-1.3,0.7-2.6,1.4-4,2.1c0.8-0.8,1.6-1.7,2.3-2.5c1-1.1,2-2.1,3-3.2l0,0c0.1-0.1,0.2-0.2,0.3-0.3c0.1-0.1,0.2-0.2,0.2-0.2
	c0.5,0.4,1,0.7,1.5,1.1c0.4,0.3,0.7,0.5,1.1,0.8C21.9,9.2,20.4,10,18.9,10.8 M15.5,10.5c-1,1.1-2,2.2-3.1,3.3c-2-2.4-4-4.9-6-7.3
	C5.6,5.5,4.7,4.4,3.8,3.3l0,0C3.6,3,3.4,2.8,3.2,2.6C3,2.4,2.9,2.2,2.8,2.1c0.8,0.2,1.6,0.4,2.4,0.6C5.9,2.8,6.6,3,7.4,3.2l12.2,3
	C18.2,7.6,16.9,9.1,15.5,10.5 M12,24.1c0.1-0.7,0.2-1.5,0.2-2.2c0.1-0.6,0.1-1.2,0.2-1.8c0.1-0.9,0.2-1.9,0.3-2.8l0-0.2
	c0.1-0.6,0.1-1.2,0.2-1.9c0.1,0,0.2-0.1,0.3-0.1c0.1,0,0.2-0.1,0.3-0.2c1.6-0.8,3.2-1.7,4.9-2.5c1.6-0.8,3.3-1.7,4.9-2.6
	c-1.5,2.2-3,4.4-4.5,6.5c-1.3,1.8-2.5,3.7-3.8,5.6c-0.5,0.7-1,1.5-1.5,2.2c-0.6,0.8-1.1,1.6-1.7,2.5C11.8,25.8,11.9,25,12,24.1
	 M2.3,3.7C2.2,3.5,2.1,3.2,2,3c1.9,2.3,3.8,4.6,5.7,6.8c1,1.2,1.9,2.3,2.9,3.5c0.2,0.2,0.4,0.4,0.6,0.7c0.2,0.3,0.5,0.6,0.7,0.9
	c-0.1,0.7-0.2,1.4-0.2,2.2c-0.1,0.5-0.1,1-0.2,1.5v0c0,0.3-0.1,0.6-0.1,0.9c-0.1,0.4-0.2,1.4-0.2,1.4l0,0c-0.1,1.4-0.3,2.8-0.4,4.2
	c-0.1,0.6-0.1,1.2-0.2,1.8c0-0.1-0.1-0.2-0.1-0.3c-0.1-0.3-0.2-0.6-0.3-0.9l-0.8-2.1C7,17,4.6,10.3,2.3,3.7"/>
</svg>
