<?xml version="1.0" encoding="utf-8"?>
<!-- Generator: Adobe Illustrator 21.0.0, SVG Export Plug-In . SVG Version: 6.00 Build 0)  -->
<svg version="1.1" id="Layer_1" xmlns="http://www.w3.org/2000/svg" xmlns:xlink="http://www.w3.org/1999/xlink" x="0px" y="0px"
	 viewBox="0 0 593.8 593.8" style="enable-background:new 0 0 593.8 593.8;" xml:space="preserve">
<style type="text/css">
	.st0{fill:#FFFFFF;}
</style>
<title>3-bitcoin-cash-logo-ot</title>
<g>
	<path class="st0" d="M374.3,323.9L374.3,323.9L374.3,323.9L374.3,323.9c-0.1-0.3-0.1-0.4-0.1-0.6l0,0l-0.1-0.2l0,0
		c0-0.4,0-0.6-0.1-0.7c-0.1-0.3-0.1-0.5-0.2-0.7l-0.1-0.2l0,0c-0.1-0.2-0.1-0.3-0.2-0.5l-0.1-0.1c-1.9-6-5.8-11.3-11.1-14.8
		c-0.2-0.1-0.3-0.2-0.5-0.3l-0.2-0.2l-0.2-0.1l-0.1,0l-0.1-0.1l-0.1,0l-0.2-0.1l-0.1,0l-0.2-0.1l-0.1,0l-0.2-0.1l-0.1,0l-0.2-0.1
		l-0.1,0l-0.2-0.1l-0.1,0l-0.2-0.1l-0.1,0l-0.2-0.1l-0.1,0l-0.2-0.1l-0.1,0l-0.2-0.1l-0.1,0l-0.2-0.1l-0.1,0l-0.2-0.1l-0.1,0
		l-0.2-0.1l-0.1,0l-0.2-0.1l-0.1,0l-0.2-0.1l-0.1,0l-0.2-0.1l-0.1,0l-0.2-0.1l-0.1,0l-0.2-0.1l-0.1,0l-0.2-0.1l-0.1,0l-0.2-0.1
		l-0.1,0l-0.2-0.1l-0.1,0l-0.3-0.1l-0.2-0.1l-0.3-0.1c-10.5-4.5-24.1-5.5-37.9-1.9c-8.7,2.3-35.1,8.9-41.5,10.5l17.9,69.8
		c6.4-1.6,32.8-8.5,41.5-10.8c13.8-3.5,25.2-11,32.3-20l0.2-0.3l0.1-0.1l0.2-0.2l0.1-0.1l0.2-0.2l0.1-0.1l0.2-0.2l0.1-0.1l0.2-0.2
		l0.1-0.1l0.2-0.2l0.1-0.1l0.1-0.2l0.1-0.1l0.1-0.2l0-0.1l0.1-0.2l0-0.1l0.1-0.2l0-0.1l0.1-0.2l0-0.1l0.1-0.2l0-0.1l0.1-0.2l0-0.1
		l0.1-0.2l0-0.1l0.1-0.2l0-0.1l0.1-0.2l0-0.1l0.1-0.2l0-0.1l0.1-0.2l0-0.1l0.1-0.2l0-0.1l0.1-0.2l0-0.1l0.1-0.2l0-0.1l0.1-0.1l0-0.1
		l0.1-0.1l0-0.1l0.1-0.2l0.1-0.2l0.3-0.5C374.6,336.6,375.5,330.1,374.3,323.9L374.3,323.9z"/>
	<path class="st0" d="M329.1,251.8l0.2-0.3l0.1-0.1l0.1-0.2l0-0.1l0.1-0.2l0-0.1l0.1-0.2l0-0.1l0.1-0.2l0-0.1l0.1-0.2l0-0.1l0.1-0.2
		l0-0.1l0.1-0.2l0-0.1l0.1-0.2l0-0.1l0.1-0.2l0-0.1l0.1-0.2l0-0.1l0.1-0.2l0-0.1l0.1-0.2l0-0.1l0.1-0.1l0-0.1l0.1-0.1l0-0.1l0.1-0.1
		l0-0.1l0.1-0.1l0-0.1l0.1-0.1l0-0.1l0.1-0.1l0-0.1l0.1-0.1l0-0.1l0.1-0.1l0-0.1l0.1-0.1l0-0.1l0.1-0.1l0-0.1l0.1-0.1l0.1-0.2
		l0.2-0.5c2.4-5.3,3-11.1,1.8-16.8l0-0.1c-0.1-0.1-0.1-0.3-0.1-0.5l0,0l-0.1-0.2c0-0.2-0.1-0.5-0.1-0.7c-0.1-0.2-0.1-0.4-0.2-0.7
		l-0.1-0.2l0,0c0-0.1-0.1-0.3-0.1-0.5l0-0.1c-1.7-5.5-5.1-10.4-9.7-13.8c-0.1-0.1-0.3-0.2-0.4-0.3l-0.2-0.1l-0.1-0.1l-0.1,0
		l-0.1-0.1l-0.1,0l-0.1-0.1l-0.1,0l-0.1-0.1l-0.1,0l-0.1-0.1l-0.1,0l-0.1-0.1l-0.1-0.1l-0.1-0.1l-0.1,0l-0.1-0.1l-0.1,0l-0.1-0.1
		l-0.1,0l-0.1-0.1l-0.1,0l-0.1-0.1l-0.1,0l-0.2-0.1l-0.1,0l-0.2-0.1l-0.1,0l-0.2-0.1l-0.1,0l-0.2-0.1l-0.1,0l-0.2-0.1l-0.1,0
		l-0.2-0.1l-0.1,0l-0.2-0.1l-0.1,0l-0.2-0.1l-0.1,0l-0.2-0.1l-0.1,0l-0.2-0.1l-0.1,0l-0.2-0.1l-0.1,0l-0.2-0.1l-0.1-0.1l-0.3-0.1
		c-9-4.3-20.5-5.5-32.2-2.5c-7.4,1.9-29.6,7.5-35,8.9l16.6,64.3c5.4-1.4,27.6-7.2,35-9.1C313.8,266.5,323.3,260,329.1,251.8z"/>
	<path class="st0" d="M296.9,0C132.9,0,0,132.9,0,296.9s132.9,296.9,296.9,296.9s296.9-132.9,296.9-296.9S460.9,0,296.9,0z
		 M434.1,349.2L434.1,349.2c-0.1,0.4-0.3,0.7-0.4,1l-0.2,0.4l-0.1,0.3l-0.1,0.1l-0.1,0.3l-0.1,0.1l-0.1,0.3l-0.1,0.1l-0.2,0.3
		l-0.1,0.1l-0.2,0.3l-0.1,0.1l-0.2,0.3l-0.1,0.1l-0.2,0.3l-0.1,0.1l-0.2,0.3l-0.1,0.1l-0.2,0.3l-0.1,0.2l-0.2,0.3l-0.1,0.2l-0.2,0.3
		l-0.1,0.2l-0.2,0.3l-0.1,0.2l-0.2,0.3l-0.1,0.2l-0.2,0.3l-0.1,0.2l-0.2,0.3l-0.1,0.2l-0.2,0.4l-0.1,0.2l-0.2,0.4l-0.1,0.2l-0.2,0.4
		l-0.1,0.2l-0.2,0.4l-0.1,0.2l-0.2,0.4l-0.1,0.2l-0.2,0.4l-0.1,0.2l-0.2,0.4l-0.1,0.2l-0.2,0.4l-0.2,0.3l0,0l-0.4,0.6
		c-11.4,17.1-30.3,30.8-53.7,36.8c-3.2,0.8-7.8,2-13.1,3.4l13.7,53.1l-31.6,8.1l-13.6-52.9l-25.3,6.5l13.6,52.9l-31.6,8.1
		l-13.8-52.8L206,443.2l-1.4-40.1l23-5.9c5.8-1.5,9.3-7.4,7.8-13.2L199,242.1l0,0c-2.2-8.7-11.1-13.9-19.8-11.7l-26.3,6.7l-8.7-33.7
		l65.2-16.8l-13.6-52.9l31.6-8.1l13.6,52.7l25.3-6.5L252.8,119l31.6-8.1L298,164l5.4-1.4c20.7-5.3,41.3-2.8,57.5,5.6l0.6,0.3l0,0
		l0.3,0.1l0.4,0.2l0.2,0.1l0.4,0.2l0.2,0.1l0.4,0.2l0.2,0.1l0.3,0.2l0.2,0.1l0.3,0.2l0.2,0.1l0.3,0.2l0.2,0.1l0.3,0.2l0.1,0.1
		l0.3,0.2l0.1,0.1l0.3,0.2l0.1,0.1l0.3,0.2l0.1,0.1l0.3,0.2l0.1,0.1l0.3,0.2l0.1,0.1l0.3,0.2l0.1,0.1l0.3,0.2l0.1,0.1l0.3,0.2
		l0.1,0.1l0.3,0.2l0.1,0.1l0.3,0.2l0.1,0.1l0.3,0.2l0.1,0.1l0.3,0.2l0.1,0.1l0.3,0.2l0.1,0.1l0.2,0.2l0.1,0.1l0.2,0.2l0.1,0.1
		l0.3,0.2l0.3,0.3c0.2,0.2,0.5,0.4,0.7,0.6l0,0c8.4,6.8,14.5,16,17.6,26.4l0,0l0,0l0,0l0,0l0,0l0,0l0,0c0.1,0.3,0.2,0.6,0.3,0.9
		l0,0.1l0.2,0.3c0.1,0.4,0.2,0.8,0.3,1.2c0.1,0.4,0.2,0.8,0.3,1.3l0.1,0.2l0,0l0,0v0.1c0.1,0.3,0.1,0.6,0.2,0.9l0,0l0,0l0,0l0,0l0,0
		l0,0l0,0.1l0,0c2.3,10.6,1.3,21.6-2.7,31.6l0,0c-0.1,0.3-0.2,0.6-0.4,0.9l-0.2,0.4l-0.1,0.3l-0.1,0.1l-0.1,0.3l-0.1,0.1l-0.1,0.3
		l-0.1,0.1l-0.1,0.3l-0.1,0.1l-0.1,0.3l-0.1,0.1l-0.1,0.3l-0.1,0.1l-0.1,0.3l-0.1,0.1l-0.1,0.3l-0.1,0.1l-0.1,0.3l-0.1,0.1l-0.2,0.3
		l-0.1,0.1l-0.2,0.3l-0.1,0.1l-0.2,0.3l-0.1,0.1l-0.2,0.3l-0.1,0.1l-0.2,0.3l-0.1,0.1l-0.2,0.3l-0.1,0.1l-0.2,0.3l-0.1,0.1l-0.2,0.3
		L385,248l-0.2,0.3l-0.1,0.2l-0.2,0.3l-0.1,0.2l-0.2,0.3l-0.1,0.2l-0.2,0.3l-0.1,0.2l-0.2,0.3l-0.1,0.2l-0.2,0.3l-0.2,0.3l0,0
		l-0.3,0.5c-2.2,3.2-4.6,6.3-7.3,9.1c9.5,1.3,18.6,4.2,27.1,8.6c0.2,0.1,0.4,0.2,0.6,0.3l0,0l0.3,0.1l0.4,0.2l0.2,0.1l0.4,0.2
		l0.2,0.1l0.4,0.2l0.2,0.1l0.4,0.2l0.2,0.1l0.4,0.2l0.2,0.1l0.4,0.2l0.2,0.1l0.4,0.2l0.2,0.1l0.3,0.2l0.2,0.1l0.3,0.2l0.2,0.1
		l0.3,0.2l0.2,0.1l0.3,0.2l0.2,0.1l0.3,0.2l0.2,0.1l0.3,0.2l0.2,0.1l0.3,0.2l0.2,0.1l0.3,0.2l0.2,0.1l0.3,0.2l0.2,0.1l0.2,0.3
		l0.1,0.1l0.3,0.2l0.1,0.1l0.3,0.2l0.1,0.1l0.3,0.2l0.1,0.1l0.3,0.2l0.1,0.1l0.3,0.2l0.1,0.1l0.3,0.2l0.4,0.3
		c0.3,0.2,0.6,0.4,0.9,0.7l0,0c9.4,7.7,16.3,18,19.8,29.7l0,0.1l0,0l0,0l0,0l0,0l0,0l0,0c0.1,0.3,0.2,0.7,0.3,1l0,0.1l0.2,0.3
		c0,0.4,0.1,0.9,0.1,1.3c0.1,0.5,0.2,0.9,0.4,1.4l0.1,0.1l0,0l0,0l0,0l0,0l0,0l0,0l0,0l0,0l0,0l0,0l0,0l0,0l0,0v0.1
		c0.1,0.3,0.1,0.6,0.2,1l0,0l0,0l0,0l0,0l0,0l0,0l0,0l0,0C439.8,325.5,438.7,337.9,434.1,349.2z"/>
</g>
</svg>
