<?xml version="1.0" encoding="utf-8"?>
<!-- Generator: Adobe Illustrator 21.0.0, SVG Export Plug-In . SVG Version: 6.00 Build 0)  -->
<svg version="1.1" id="Layer_1" xmlns="http://www.w3.org/2000/svg" xmlns:xlink="http://www.w3.org/1999/xlink" x="0px" y="0px"
	 viewBox="0 0 27 30" style="enable-background:new 0 0 27 30;" xml:space="preserve">
<style type="text/css">
	.st0{fill:#FFFFFF;}
</style>
<path id="bitcoin_logo_1_" class="st0" d="M22.2,14.5c1.5-2.3,1.8-5.2,0.7-7.8c-1.6-3.8-6.1-4.1-6.1-4.1V0H12v2.8h-1.9V0H5.3V3H2
	v4.6h2.5v15.5H2v4.7h3.5V30h4.7v-2.2h2.1V30H17v-2.1c5.3-0.5,7.3-3.7,7.5-7.5C24.6,18.2,23.8,16.1,22.2,14.5z M9.1,7.4h7.4
	c3.1,0,3.2,5.1,0,5.1H9.1V7.4z M17.3,23.1H9.1v-5.7h8.2C20.4,17.4,20.6,23.1,17.3,23.1z"/>
</svg>
