<?xml version="1.0" encoding="utf-8"?>
<!-- Generator: Adobe Illustrator 21.0.0, SVG Export Plug-In . SVG Version: 6.00 Build 0)  -->
<svg version="1.1" id="Layer_1" xmlns="http://www.w3.org/2000/svg" xmlns:xlink="http://www.w3.org/1999/xlink" x="0px" y="0px"
	 viewBox="0 0 80 80" style="enable-background:new 0 0 80 80;" xml:space="preserve">
<style type="text/css">
	.st0{fill:url(#Rectangle_49-2_1_);}
	.st1{fill:#FFFFFF;}
</style>
<g transform="matrix(1, 0, 0, 1, 0, 0)">
	
		<linearGradient id="Rectangle_49-2_1_" gradientUnits="userSpaceOnUse" x1="-670.7523" y1="339.8676" x2="-671.6772" y2="339.3046" gradientTransform="matrix(80 0 0 -80 53737 27207)">
		<stop  offset="0" style="stop-color:#2F75B3"/>
		<stop  offset="1" style="stop-color:#20629D"/>
	</linearGradient>
	<path id="Rectangle_49-2" class="st0" d="M26,0h28c14.4,0,26,11.6,26,26v28c0,14.4-11.6,26-26,26H26C11.6,80,0,68.4,0,54V26
		C0,11.6,11.6,0,26,0z"/>
</g>
<path id="DASH_icon" class="st1" d="M40.5,18C28.1,18,18,28.1,18,40.5S28.1,63,40.5,63S63,52.9,63,40.5S52.9,18,40.5,18z M27.2,38.5
	h10.6l-1.3,4H25.8L27.2,38.5z M55,36.3l-2.7,8.3c-0.2,0.6-0.5,1.1-0.9,1.7c-0.4,0.5-0.9,1-1.4,1.4c-0.6,0.4-1.1,0.8-1.8,1.1
	c-0.6,0.2-1.2,0.3-1.8,0.3H26.4l1.4-4.3H46l2.9-8.8H30.7l1.4-4.3h20c0.5,0,1.1,0.1,1.5,0.3c0.5,0.2,0.9,0.5,1.1,1
	c0.3,0.4,0.4,0.9,0.4,1.4l0,0C55.3,35.2,55.2,35.8,55,36.3L55,36.3z"/>
</svg>
