<?xml version="1.0" encoding="utf-8"?>
<!-- Generator: Adobe Illustrator 21.0.0, SVG Export Plug-In . SVG Version: 6.00 Build 0)  -->
<svg version="1.1" id="Layer_1" xmlns="http://www.w3.org/2000/svg" xmlns:xlink="http://www.w3.org/1999/xlink" x="0px" y="0px"
	 viewBox="0 0 80 80" style="enable-background:new 0 0 80 80;" xml:space="preserve">
<style type="text/css">
	.st0{fill:url(#Rectangle_23-2_1_);}
	.st1{fill:#FFFFFF;}
</style>
<g transform="matrix(1, 0, 0, 1, 0, 0)">
	
		<linearGradient id="Rectangle_23-2_1_" gradientUnits="userSpaceOnUse" x1="-670.7523" y1="339.8676" x2="-671.6772" y2="339.3046" gradientTransform="matrix(80 0 0 -80 53737 27207)">
		<stop  offset="0" style="stop-color:#627EEA"/>
		<stop  offset="1" style="stop-color:#485FB9"/>
	</linearGradient>
	<path id="Rectangle_23-2" class="st0" d="M26,0h28c14.4,0,26,11.6,26,26v28c0,14.4-11.6,26-26,26H26C11.6,80,0,68.4,0,54V26
		C0,11.6,11.6,0,26,0z"/>
</g>
<g id="Group_14" transform="translate(122 202.944)">
	<path id="Path_4-2" class="st1" d="M-95.5-165.2l13.7-5.8l13.3,5.9L-81.8-186L-95.5-165.2z M-95.5-158.8l13.7,7.9l13.9-7.9
		l-13.8,19.2L-95.5-158.8z"/>
	<path id="Path_5-2" class="st1" d="M-81.8-168.2l-14.2,6l14.2,7.9l13.8-7.7L-81.8-168.2z"/>
</g>
</svg>
