<?xml version="1.0" encoding="utf-8"?>
<!-- Generator: Adobe Illustrator 21.0.0, SVG Export Plug-In . SVG Version: 6.00 Build 0)  -->
<svg version="1.1" id="Layer_1" xmlns="http://www.w3.org/2000/svg" xmlns:xlink="http://www.w3.org/1999/xlink" x="0px" y="0px"
	 viewBox="0 0 32 32" style="enable-background:new 0 0 32 32;" xml:space="preserve">
<style type="text/css">
	.st0{fill:#FFFFFF;}
</style>
<g id="Padlock_x5F_Open">
	<g>
		<path class="st0" d="M24,0c-4.4,0-8,3.6-8,8v6H3c-1.7,0-3,1.3-3,3v12c0,1.7,1.3,3,3,3h16c1.7,0,3-1.3,3-3V17c0-1.7-1.3-3-3-3h-1V8
			c0-3.3,2.7-6,6-6s6,2.7,6,6v6c0,0.6,0.4,1,1,1s1-0.4,1-1V8C32,3.6,28.4,0,24,0z M19,16c0.6,0,1,0.4,1,1v12c0,0.6-0.4,1-1,1H3
			c-0.6,0-1-0.4-1-1V17c0-0.6,0.4-1,1-1H19z M11,26c1.1,0,2-0.9,2-2c0-0.7-0.4-1.4-1-1.7V20c0-0.6-0.4-1-1-1s-1,0.4-1,1v2.3
			c-0.6,0.3-1,1-1,1.7C9,25.1,9.9,26,11,26z"/>
	</g>
</g>
</svg>
