<?xml version="1.0" encoding="utf-8"?>
<!-- Generator: Adobe Illustrator 21.0.0, SVG Export Plug-In . SVG Version: 6.00 Build 0)  -->
<svg version="1.1" id="Layer_1" xmlns="http://www.w3.org/2000/svg" xmlns:xlink="http://www.w3.org/1999/xlink" x="0px" y="0px"
	 viewBox="0 0 22 32" style="enable-background:new 0 0 22 32;" xml:space="preserve">
<style type="text/css">
	.st0{fill:#FFFFFF;}
</style>
<g id="Padlock">
	<g>
		<path class="st0" d="M19,14V8c0-4.4-3.6-8-8-8C6.6,0,3,3.6,3,8v6c-1.7,0-3,1.3-3,3v12c0,1.7,1.3,3,3,3h16c1.7,0,3-1.3,3-3V17
			C22,15.3,20.7,14,19,14z M5,8c0-3.3,2.7-6,6-6s6,2.7,6,6v6H5V8z M20,29c0,0.6-0.4,1-1,1H3c-0.6,0-1-0.4-1-1V17c0-0.6,0.4-1,1-1h16
			c0.6,0,1,0.4,1,1V29z M12,22.3V20c0-0.6-0.4-1-1-1s-1,0.4-1,1v2.3c-0.6,0.3-1,1-1,1.7c0,1.1,0.9,2,2,2s2-0.9,2-2
			C13,23.3,12.6,22.6,12,22.3z"/>
	</g>
</g>
</svg>
