<?xml version="1.0" encoding="utf-8"?>
<!-- Generator: Adobe Illustrator 21.0.0, SVG Export Plug-In . SVG Version: 6.00 Build 0)  -->
<svg version="1.1" id="Layer_1" xmlns="http://www.w3.org/2000/svg" xmlns:xlink="http://www.w3.org/1999/xlink" x="0px" y="0px"
	 viewBox="0 0 33 33" style="enable-background:new 0 0 33 33;" xml:space="preserve">
<style type="text/css">
	.st0{fill:#FFFFFF;}
</style>
<path id="Path_17" class="st0" d="M16.5,0C7.4,0,0,7.4,0,16.5S7.4,33,16.5,33S33,25.6,33,16.5S25.6,0,16.5,0z M24.3,21.7
	c-0.5,1.6-1.5,2.9-2.9,3.7c0.1-0.3,0.1-0.5,0.2-0.8c0.9-5-0.8-10.9-9-14.2c6.6,3.8,9.2,10.5,6.1,14.8c-5.2,0.8-9-3.5-9-8.5v-9
	C21.9,8.2,26.6,15.3,24.3,21.7z"/>
</svg>
