<?xml version="1.0" encoding="utf-8"?>
<!-- Generator: Adobe Illustrator 21.0.0, SVG Export Plug-In . SVG Version: 6.00 Build 0)  -->
<svg version="1.1" id="Layer_1" xmlns="http://www.w3.org/2000/svg" xmlns:xlink="http://www.w3.org/1999/xlink" x="0px" y="0px"
	 viewBox="0 0 114.6 32" style="enable-background:new 0 0 114.6 32;" xml:space="preserve">
<style type="text/css">
	.st0{fill:#FFFFFF;}
	.st1{fill:#CB45EB;}
</style>
<g id="Group_10" transform="translate(78 23.9)">
	<g id="Group_9" transform="translate(34.796 3.284)">
		<path id="Path_18" class="st0" d="M-64.9-23.8l-4.9,11.5H-73l-5-11.5h3.5l3.1,7.5l3.2-7.5H-64.9z"/>
		<path id="Path_19" class="st0" d="M-65-18c-0.2-3.5,2.5-6.5,6-6.8c3.5-0.2,6.5,2.5,6.8,6s-2.5,6.5-6,6.8c-0.1,0-0.3,0-0.4,0
			c-3.3,0.2-6.2-2.4-6.4-5.7C-65-17.8-65-17.9-65-18z M-55.4-18c0.1-1.7-1.2-3.1-2.9-3.3c-0.1,0-0.2,0-0.3,0c-1.7,0-3.1,1.4-3.1,3.1
			c0,0.1,0,0.1,0,0.2c-0.1,1.7,1.2,3.1,2.9,3.3c0.1,0,0.2,0,0.3,0c1.7,0,3.1-1.4,3.1-3.1C-55.4-17.9-55.4-18-55.4-18z"/>
		<path id="Path_20" class="st0" d="M-48.2-21.2h-3.6v-2.6h10.3v2.6h-3.5v8.9h-3.3V-21.2z"/>
		<path id="Path_21" class="st0" d="M-30.9-14.8v2.5h-9.2v-11.4h9v2.5H-37v1.9h5.1v2.4H-37v2.1L-30.9-14.8z"/>
		<path id="Path_22" class="st0" d="M-13.9-12.3v-6.1l-3,5h-1.5l-3-4.8v5.9h-3v-11.4h2.7l4,6.7l4-6.7h2.7v11.5H-13.9z"/>
		<path id="Path_23" class="st0" d="M-2.5-16.4v4.1h-3.3v-4.2l-4.4-7.3h3.4l2.7,4.6l2.7-4.6h3.2L-2.5-16.4z"/>
		<path id="Path_24" class="st0" d="M-77.2-1.7c0-3.5,2.6-6,6.3-6c1.9-0.1,3.7,0.7,5,2.2L-68-3.6C-68.7-4.5-69.7-5-70.7-5
			c-1.7-0.1-3.1,1.3-3.2,3c0,0.1,0,0.2,0,0.3C-74,0-72.7,1.4-71,1.6c0.1,0,0.2,0,0.3,0c1.1,0,2.1-0.5,2.7-1.3l2.1,1.9
			c-1.2,1.5-3.1,2.3-5,2.2c-3.3,0.2-6.1-2.3-6.3-5.6C-77.2-1.5-77.2-1.6-77.2-1.7z"/>
		<path id="Path_25" class="st0" d="M-65.3-1.7c0-3.3,2.7-6,6.1-6c0.1,0,0.2,0,0.3,0c3.3-0.2,6.1,2.3,6.4,5.6s-2.3,6.1-5.6,6.4
			c-0.2,0-0.5,0-0.7,0C-62.6,4.3-65.3,1.8-65.3-1.7z M-55.7-1.7c0.1-1.7-1.2-3.1-2.9-3.3c-0.1,0-0.2,0-0.3,0c-1.7,0-3.1,1.4-3.1,3.1
			c0,0.1,0,0.1,0,0.2C-62,0-60.7,1.5-59,1.6c0.1,0,0.1,0,0.2,0c1.7,0,3.1-1.3,3.1-3C-55.7-1.5-55.7-1.6-55.7-1.7z"/>
		<path id="Path_26" class="st0" d="M-50.8-7.5h3.3V4h-3.3V-7.5z"/>
		<path id="Path_27" class="st0" d="M-34.2-7.5V4h-2.6l-5-6.1V4h-3.3V-7.5h2.7l5,6.1v-6.1H-34.2z"/>
	</g>
	<path id="Path_28" class="st1" d="M-51-13c-1.2-2.5-3.2-4.6-5.8-5.7l0,0c0-2.8-2.3-5.1-5.1-5.1c-2.8,0-5.1,2.3-5.1,5.1l0,0
		c-2.5,1.2-4.6,3.2-5.7,5.7c-2.8-0.1-5.2,2.2-5.3,5s2.2,5.2,5,5.3c0.1,0,0.1,0,0.2,0c1.2,2.5,3.2,4.6,5.7,5.7l0,0
		c0,2.8,2.3,5.1,5.1,5.1s5.1-2.3,5.1-5.1c2.5-1.2,4.6-3.2,5.7-5.7l0,0c2.8,0,5.1-2.3,5.1-5.1c0.1-2.7-2.1-5-4.8-5.1
		C-50.8-13-50.9-13-51-13z M-61.9-21.6c1.5,0,2.8,1.3,2.8,2.8c0,1.5-1.3,2.8-2.8,2.8c-1.5,0-2.8-1.3-2.8-2.8
		C-64.7-20.4-63.4-21.6-61.9-21.6C-61.9-21.6-61.9-21.6-61.9-21.6z M-75.6-7.9c0-1.5,1.3-2.8,2.8-2.8c1.5,0,2.8,1.3,2.8,2.8
		s-1.3,2.8-2.8,2.8l0,0C-74.3-5.1-75.6-6.3-75.6-7.9C-75.6-7.9-75.6-7.9-75.6-7.9z M-61.9,5.8c-1.5,0-2.8-1.3-2.8-2.8
		s1.3-2.8,2.8-2.8c1.5,0,2.8,1.3,2.8,2.8c0,0,0,0,0,0C-59.1,4.5-60.3,5.8-61.9,5.8C-61.8,5.8-61.9,5.8-61.9,5.8z M-57.3,0.6
		c-1.3-2.5-4.4-3.5-6.9-2.2c-1,0.5-1.7,1.3-2.2,2.2c-1.7-0.9-3.1-2.3-4-4c2.5-1.3,3.5-4.4,2.2-6.9c-0.5-1-1.3-1.7-2.2-2.2
		c0.9-1.7,2.3-3.1,4-4c1.3,2.5,4.4,3.5,6.9,2.2c1-0.5,1.7-1.3,2.2-2.2c1.7,0.9,3.1,2.3,4,4c-2.5,1.3-3.5,4.4-2.2,6.9
		c0.5,1,1.3,1.7,2.2,2.2C-54.1-1.7-55.6-0.3-57.3,0.6L-57.3,0.6z M-51-5.1c-1.5,0-2.8-1.3-2.8-2.8s1.3-2.8,2.8-2.8
		c1.5,0,2.8,1.3,2.8,2.8c0,0,0,0,0,0C-48.2-6.4-49.4-5.1-51-5.1C-51-5.1-51-5.1-51-5.1z"/>
</g>
</svg>
