<?xml version="1.0" encoding="utf-8"?>
<!-- Generator: Adobe Illustrator 21.0.0, SVG Export Plug-In . SVG Version: 6.00 Build 0)  -->
<svg version="1.1" id="Layer_1" xmlns="http://www.w3.org/2000/svg" xmlns:xlink="http://www.w3.org/1999/xlink" x="0px" y="0px"
	 viewBox="0 0 30 30" style="enable-background:new 0 0 30 30;" xml:space="preserve">
<style type="text/css">
	.st0{fill:#FFFFFF;}
</style>
<g id="Group_5" transform="translate(279.001 557.357)">
	<path id="Path_11" class="st0" d="M-264-557.4c-8.3,0-15,6.7-15,15c0,1.6,0.3,3.2,0.8,4.7h4.5v-12.6l9.8,9.7l9.7-9.8v12.6h4.5
		c2.6-7.9-1.6-16.4-9.5-19C-260.8-557.1-262.4-557.4-264-557.4"/>
	<path id="Path_12" class="st0" d="M-266.2-538.2l-4.3-4.3v7.9h-6.3c4.3,7.1,13.5,9.3,20.6,5c2.1-1.2,3.8-3,5-5h-6.3v-7.9l-4.3,4.3
		l-2.2,2.2L-266.2-538.2z"/>
</g>
</svg>
