<?xml version="1.0" encoding="utf-8"?>
<!-- Generator: Adobe Illustrator 21.0.0, SVG Export Plug-In . SVG Version: 6.00 Build 0)  -->
<svg version="1.1" id="Layer_1" xmlns="http://www.w3.org/2000/svg" xmlns:xlink="http://www.w3.org/1999/xlink" x="0px" y="0px"
	 viewBox="0 0 80 80" style="enable-background:new 0 0 80 80;" xml:space="preserve">
<style type="text/css">
	.st0{fill:url(#Rectangle_48-2_1_);}
	.st1{fill:#FFFFFF;}
</style>
<g transform="matrix(1, 0, 0, 1, 0, 0)">
	
		<linearGradient id="Rectangle_48-2_1_" gradientUnits="userSpaceOnUse" x1="-670.7523" y1="339.8676" x2="-671.6772" y2="339.3046" gradientTransform="matrix(80 0 0 -80 53737 27207)">
		<stop  offset="0" style="stop-color:#627EEA"/>
		<stop  offset="1" style="stop-color:#485FB9"/>
	</linearGradient>
	<path id="Rectangle_48-2" class="st0" d="M26,0h28c14.4,0,26,11.6,26,26v28c0,14.4-11.6,26-26,26H26C11.6,80,0,68.4,0,54V26
		C0,11.6,11.6,0,26,0z"/>
</g>
<path id="XRP_icon" class="st1" d="M44.7,17.3c-3.1,1.8-5.1,5.2-5.1,8.8c0.1,1.9,0.7,3.8,1.7,5.5c0.8,1.5,1.1,4.1-1.5,5.5
	c-1.9,1.1-4.4,0.4-5.5-1.5c-1.1-1.6-2.5-3-4.1-4.1c-3.1-1.9-7-1.9-10.2,0c-4.9,2.9-6.5,9.1-3.7,14c0.9,1.5,2.2,2.8,3.7,3.7
	c3.1,1.9,7,1.9,10.2,0c1.7-1,3-2.4,3.9-4.1c1-1.9,3.3-2.6,5.2-1.6c0.1,0,0.2,0.1,0.2,0.1c1.8,1.2,2.5,3.5,1.5,5.5
	c-1,1.7-1.5,3.5-1.5,5.5c0,3.6,1.9,7,5.1,8.8c3.1,1.9,7,1.9,10.2,0c4.9-2.8,6.5-9.1,3.7-14c-0.9-1.5-2.2-2.8-3.7-3.7
	c-1.7-0.9-3.7-1.4-5.6-1.3c-2.2,0-3.9-1.8-3.9-4c0-2.2,1.8-3.9,3.9-3.9c2,0,3.9-0.4,5.6-1.3c4.9-2.8,6.5-9.1,3.7-14
	c-0.9-1.5-2.2-2.8-3.7-3.7c-1.5-0.9-3.3-1.4-5.1-1.3C48,16,46.3,16.4,44.7,17.3"/>
</svg>
